<svg xmlns="http://www.w3.org/2000/svg" viewBox="0 0 24 24" fill="none" aria-hidden="true">
  <path fill="#111827" d="M12 0.296C5.372 0.296 0 5.668 0 12.297c0 5.303 3.438 9.8 8.205 11.385.6.113.82-.261.82-.58 0-.288-.012-1.243-.017-2.253-3.338.726-4.042-1.416-4.042-1.416-.546-1.387-1.333-1.756-1.333-1.756-1.089-.744.083-.729.083-.729 1.205.085 1.84 1.238 1.84 1.238 1.071 1.835 2.808 1.305 3.492.998.108-.776.419-1.305.762-1.606-2.665-.303-5.467-1.335-5.467-5.934 0-1.311.468-2.382 1.236-3.221-.124-.303-.536-1.522.117-3.176 0 0 1.008-.322 3.302 1.23a11.52 11.52 0 0 1 3.004-.404c1.018.005 2.043.138 3.003.404 2.293-1.552 3.3-1.23 3.3-1.23.654 1.654.242 2.873.118 3.176.77.839 1.235 1.91 1.235 3.221 0 4.61-2.805 5.628-5.476 5.924.43.371.823 1.103.823 2.224 0 1.606-.015 2.898-.015 3.293 0 .321.218.697.825.578C20.565 23.095 24 18.598 24 12.297 24 5.668 18.628.296 12 .296z"/>
</svg>
